<svg width="20" height="20" viewBox="0 0 20 20" fill="none" xmlns="http://www.w3.org/2000/svg">
<path d="M10 18.5714C5.275 18.5714 1.42857 14.725 1.42857 10C1.42857 5.275 5.275 1.42857 10 1.42857C14.725 1.42857 18.5714 5.275 18.5714 10C18.5714 14.725 14.725 18.5714 10 18.5714ZM10 0C4.075 0 0 4.075 0 10C0 15.925 4.075 20 10 20C15.925 20 20 15.925 20 10C20 4.075 15.925 0 10 0ZM12.775 5.71429L10 8.48929L7.225 5.71429L5.71429 7.225L8.48929 10L5.71429 12.775L7.225 14.2857L10 11.5107L12.775 14.2857L14.2857 12.775L11.5107 10L14.2857 7.225L12.775 5.71429Z" fill="#58585A"/>
</svg>
